<?xml version="1.0" encoding="utf-8"?><svg viewBox="0 0 502.66 502.66" xmlns="http://www.w3.org/2000/svg" xmlns:xlink="http://www.w3.org/1999/xlink"><style>:root>svg{display:none}:root>svg:target{display:block}</style><svg viewBox="0 0 502.664 502.664" id="icon" xmlns="http://www.w3.org/2000/svg"><path d="M153.821 358.226L0 274.337v-46.463l153.821-83.414v54.574L46.636 250.523l107.185 53.431v54.272zm26.273 29.358L282.103 115.08h32.227L212.084 387.584h-31.99zm168.749-29.358v-54.272l107.164-52.999-107.164-52.59v-53.927l153.821 83.522v46.183l-153.821 84.083z"/></svg><svg viewBox="0 0 20 20" id="mute" xmlns="http://www.w3.org/2000/svg"><path fill-rule="evenodd" clip-rule="evenodd" d="M12 15.583c.584.416 1.334.083 1.334-.667v-3.75l-3.084 3.083L12 15.583zm5.25-11.167a.805.805 0 00-1.166 0l-2.75 2.75V5.083c0-.667-.834-1.084-1.334-.667L9.667 6.333c-.333.166-.667.333-1.083.333H6.667C5.75 6.666 5 7.416 5 8.333v3.333c0 .917.75 1.667 1.667 1.667h.5l-2.75 2.75a.806.806 0 000 1.166.806.806 0 001.167 0L17.25 5.583a.805.805 0 000-1.167z"/></svg><svg viewBox="0 0 19 22" id="play" xmlns="http://www.w3.org/2000/svg"><path d="M18.5 10.134a1 1 0 010 1.732L2 21.392a1 1 0 01-1.5-.866V1.474A1 1 0 012 .608l16.5 9.526z"/></svg></svg>